<?xml version="1.0" encoding="UTF-8" standalone="no"?>
<!-- Created with Inkscape (http://www.inkscape.org/) -->

<svg
   width="210mm"
   height="297mm"
   viewBox="0 0 210 297"
   version="1.1"
   id="svg1"
   xml:space="preserve"
   inkscape:version="1.3.2 (091e20e, 2023-11-25, custom)"
   sodipodi:docname="logo_vetor.svg"
   xmlns:inkscape="http://www.inkscape.org/namespaces/inkscape"
   xmlns:sodipodi="http://sodipodi.sourceforge.net/DTD/sodipodi-0.dtd"
   xmlns="http://www.w3.org/2000/svg"
   xmlns:svg="http://www.w3.org/2000/svg"><sodipodi:namedview
     id="namedview1"
     pagecolor="#505050"
     bordercolor="#eeeeee"
     borderopacity="1"
     inkscape:showpageshadow="0"
     inkscape:pageopacity="0"
     inkscape:pagecheckerboard="0"
     inkscape:deskcolor="#505050"
     inkscape:document-units="mm"
     inkscape:zoom="0.31559402"
     inkscape:cx="91.890208"
     inkscape:cy="445.19222"
     inkscape:window-width="1366"
     inkscape:window-height="697"
     inkscape:window-x="-8"
     inkscape:window-y="-8"
     inkscape:window-maximized="1"
     inkscape:current-layer="layer2" /><defs
     id="defs1" /><g
     inkscape:label="Camada 1"
     inkscape:groupmode="layer"
     id="layer1"
     style="display:inline" /><g
     inkscape:groupmode="layer"
     id="layer2"
     inkscape:label="vetor"
     style="display:inline"><rect
       style="display:inline;fill:#1b5d1f;fill-opacity:1;stroke-width:0.612078"
       id="rect18"
       width="223.37379"
       height="239.54086"
       x="-7.5453043"
       y="28.923634" /><g
       id="g18"
       transform="matrix(3.1484678,0,0,3.1484678,-105.86921,-266.70806)"
       style="display:inline"><path
         style="display:inline;fill:#ffde58;fill-opacity:1;stroke-width:0.264583"
         d="m 80.19496,123.94719 c 0.153783,-2.2416 1.541224,-4.434 5.030196,-6.53664 2.277364,-1.07402 7.520659,-1.35878 9.205364,0.37989 -1.004173,1.51954 -1.810487,3.03907 -5.09213,4.55861 -3.312701,1.2619 -6.382408,1.57753 -9.14343,1.59814 z m 3.117674,2.33171"
         id="path10"
         sodipodi:nodetypes="ccccc" /><path
         style="display:inline;fill:#ffde58;fill-opacity:1;stroke-width:0.27019"
         d="m 55.892967,123.97562 c -0.160369,-2.2416 -1.607234,-4.434 -5.245638,-6.53664 -2.374902,-1.07402 -7.842766,-1.35878 -9.599626,0.37989 1.047181,1.51954 1.88803,3.03907 5.310224,4.55861 3.454583,1.2619 6.655765,1.57753 9.53504,1.59814 z m -3.251202,2.33171"
         id="path10-2"
         sodipodi:nodetypes="ccccc" /><path
         style="display:inline;fill:#ffde58;fill-opacity:1;stroke-width:0.264583"
         d="m 87.962945,124.81176 c 3.310208,-1.64934 7.042043,-2.74213 9.287523,-7.5191 0.444839,0.98133 1.174942,4.65599 -2.017318,6.99512 0.302826,1.57278 0.715181,2.94787 0.550177,4.45382 -3.16047,-0.5045 -5.841832,-1.96532 -7.820382,-3.92984 z"
         id="path11"
         sodipodi:nodetypes="ccccc" /><path
         style="display:inline;fill:#ffde58;fill-opacity:1;stroke-width:0.264583"
         d="m 55.539297,117.41429 c -5.195302,-6.68599 -3.52766,-9.99766 -2.704718,-17.08046 -2.099515,2.63349 -4.255484,5.22356 -3.853291,9.78144 -2.203326,1.56042 -2.842766,2.95328 -3.723615,4.372 3.347573,-0.35339 6.635948,0.79834 10.281624,2.92702 z"
         id="path12"
         sodipodi:nodetypes="ccccc" /><path
         style="display:inline;fill:#ffde58;fill-opacity:1;stroke-width:0.26293"
         d="m 80.403473,117.7736 c 5.130586,-6.68599 3.483718,-9.99766 2.671027,-17.08045 2.073361,2.63348 4.202476,5.22355 3.805292,9.78143 2.175881,1.56042 2.807355,2.95328 3.677227,4.372 -3.305869,-0.35339 -6.553283,0.79834 -10.153546,2.92702 z"
         id="path12-5"
         sodipodi:nodetypes="ccccc" /><path
         style="display:inline;fill:#ffde58;fill-opacity:1;stroke-width:0.264583"
         d="m 61.724706,112.86504 c -3.148029,-0.39441 -5.689197,-2.36665 -7.440501,-6.39254 9.68844,-6.39764 18.736986,-4.84887 27.037308,-0.41919 -1.652707,5.59972 -4.918785,6.46811 -7.650092,6.81173 5.992174,5.4878 0.195873,10.32296 -0.677447,13.74096 -1.612025,6.14376 1.457715,11.60812 3.80334,17.18651 5.779902,10.36262 -22.322582,15.03755 -16.958934,-0.85109 3.108809,-5.93843 4.263546,-11.87685 2.829486,-17.81528 -1.259698,-3.82524 -6.825345,-6.29717 -0.94316,-12.2611 z"
         id="path13"
         sodipodi:nodetypes="ccccccccc" /><path
         style="display:inline;fill:#ffde58;fill-opacity:1;stroke-width:0.264583"
         d="m 38.532935,117.41429 c -0.164759,2.46581 -0.05692,4.77674 2.223053,6.55802 -4.380206,23.67589 22.692739,43.70549 35.791166,33.64221 l -1.926646,-5.55764 c 6.050326,-5.58951 5.718501,-11.58333 6.26478,-14.28365 -0.82786,2.97585 -0.580958,4.31736 -3.634166,9.46704 -7.09516,10.54595 -20.669095,5.78108 -17.339822,-4.2979 -2.67535,-5.62943 -4.336209,-12.358 -4.112647,-17.04342 2.451406,-0.83471 -12.550507,1.81829 -17.265718,-8.48466 z"
         id="path14"
         sodipodi:nodetypes="ccccccccc" /><path
         style="display:inline;fill:#1b5d1f;fill-opacity:1;stroke-width:0.264583"
         d="m 59.318485,145.20247 c 2.752646,-5.08785 16.273037,-4.26507 17.080467,-0.037 0.800318,3.60069 -1.034003,5.24757 -2.77882,4.81661 -4.641248,-2.17717 -7.3459,-2.09804 -11.041165,0 -2.480761,0.5973 -3.774096,-1.06741 -3.260482,-4.76103 z"
         id="path15"
         sodipodi:nodetypes="cccccc" /><path
         style="fill:#1b5d1f;fill-opacity:1;stroke-width:0.264583"
         d="m 63.442983,150.88896 c 0.426766,-0.98603 2.37741,-1.68551 4.648066,-1.73839 1.645494,-0.13918 3.124842,0.72084 4.321506,1.64604 -0.506077,0.81319 -1.719826,1.75401 -4.201365,1.80324 -2.199061,0.0111 -3.886669,-0.75837 -4.768207,-1.71089 z"
         id="path16"
         sodipodi:nodetypes="ccccc" /><path
         style="fill:#ffde58;fill-opacity:1;stroke-width:0.264583"
         d="m 56.132109,128.28874 c 0.737387,-0.47374 1.599752,-0.83385 3.408682,-0.33346 1.399366,0.49308 2.489085,1.39903 3.001124,3.07522 -1.281914,-0.008 -2.583626,-0.005 -3.816243,-0.40756 -1.008368,-0.29034 -2.015392,-0.60987 -2.593563,-2.3342 z"
         id="path17"
         sodipodi:nodetypes="ccccc" /><path
         style="fill:#ffde58;fill-opacity:1;stroke-width:0.264583"
         d="m 73.63866,130.95639 c 0.248419,-0.81673 0.412157,-1.85162 2.204527,-2.76028 1.245836,-0.76851 2.589288,-0.58647 3.982972,0.0741 -0.31126,0.59888 -0.725692,1.2595 -2.482409,2.00075 -1.267939,0.6069 -2.48507,0.70149 -3.70509,0.68543 z"
         id="path18"
         sodipodi:nodetypes="ccccc" /></g></g></svg>
